<?xml version="1.0" encoding="utf-8"?>
<!DOCTYPE svg PUBLIC "-//W3C//DTD SVG 1.0//EN" "http://www.w3.org/TR/2001/REC-SVG-20010904/DTD/svg10.dtd">
<svg version="1.0" xmlns="http://www.w3.org/2000/svg" width="2048px" height="2048px" viewBox="0 0 2048 2048" preserveAspectRatio="xMidYMid meet">
 <g fill="#161616">
  <path d="M883.3 1632.3 c-0.9 -0.3 -1.3 -2.7 -1.3 -7 0 -5.5 13.9 -133.3 15.5 -142.9 0.5 -2.7 2.6 -4.5 15.3 -13.2 15.6 -10.8 19.4 -12.2 22 -8.2 1.2 2 2.3 2 89.3 2 87.2 0 88.1 0 88.6 -2 0.4 -1.5 1.4 -2 3.9 -2 2.7 0 6.4 2 16.7 9.1 7.2 5 13.9 9.9 14.8 10.8 1.4 1.3 3.5 16.2 10.4 72.8 4.7 39.2 8.5 73.2 8.3 75.5 l-0.3 4.3 -5.2 0.3 c-5.1 0.3 -5.2 0.2 -13.1 -6.8 l-8 -7 -116.4 0 -116.3 0 -8.2 7.5 c-6.8 6.3 -8.7 7.5 -11.5 7.4 -1.8 0 -3.9 -0.3 -4.5 -0.6z"/>
 </g>
 <g fill="#233447">
  <path d="M1159 1238.6 c0 -2.4 7.2 -18.6 24.2 -54 l24.1 -50.6 4 0 c3.1 0 17 5.9 61.8 26.2 l57.9 26.3 0 3.2 c0 3.2 -0.1 3.3 -8.2 5.7 -45.2 13.6 -159.3 46.6 -161.3 46.6 -2.2 0 -2.5 -0.4 -2.5 -3.4z"/>
  <path d="M799 1217 l-80.5 -23.7 -0.3 -3.4 -0.3 -3.4 59 -26.8 c39.4 -17.9 59.9 -26.7 61.6 -26.5 2.4 0.3 4.7 4.6 26.6 51.1 14.2 30.3 23.9 52 23.9 53.8 0 2.8 -0.1 2.9 -4.7 2.8 -3.1 -0.1 -33.7 -8.6 -85.3 -23.9z"/>
 </g>
 <g fill="#763d16">
  <path d="M326.3 988.7 c0.3 -0.8 -15.2 -19.8 -36.4 -44.7 -20.3 -23.8 -36.9 -43.7 -36.9 -44.1 0 -1 3.4 -3.7 18 -14.2 6.3 -4.5 11.5 -8.7 11.5 -9.3 0 -0.5 -10.8 -10.8 -24 -22.9 -13.5 -12.3 -24 -22.7 -24 -23.7 0 -1 7.2 -7.3 18 -15.8 9.9 -7.8 18.1 -14.5 18.2 -14.8 0.1 -0.4 -10.8 -9 -24.2 -19.2 -14.3 -10.8 -24.5 -19.2 -24.5 -20.1 0 -1 7 -6.9 17.1 -14.3 14.8 -11 17 -13 16.5 -14.9 -1.5 -6.2 -53.6 -257.3 -53.6 -258.5 0 -2.9 81.3 -246.1 82.4 -246.5 0.6 -0.3 5 1 9.7 2.8 8.2 3.2 22.9 13.9 304 222.5 162.5 120.6 297 220.4 298.9 221.9 4.2 3.4 6.9 10.4 7 18.2 l0 5.6 -116 98.2 c-98.1 83 -116.4 98.1 -119 98.1 -2.4 0 -3 -0.4 -3 -2.1 0 -1.5 -0.5 -1.9 -1.7 -1.5 -2.7 0.8 -109.7 32.1 -127.3 37.2 -8.5 2.5 -19.8 5.8 -25 7.4 -5.2 1.5 -19.6 5.8 -32 9.4 -12.4 3.6 -45 13.1 -72.5 21.2 -27.5 8 -55.6 16.2 -62.5 18.1 -7.3 2.1 -13.2 4.3 -14.2 5.4 -1.9 2.2 -5.3 2.6 -4.5 0.6z"/>
  <path d="M1716 987.5 c-1.4 -0.8 -77 -23.2 -168 -49.8 -137.3 -40.2 -165.7 -48.2 -166.6 -47.1 -0.6 0.8 -2.5 1.4 -4.2 1.4 -2.6 0 -20.2 -14.5 -118.4 -97.6 l-115.3 -97.7 0.2 -6.2 c0.1 -3.4 1 -8.3 2 -10.8 1.8 -4.5 8.6 -9.7 300.8 -226.5 284.2 -210.9 299.4 -222 307.5 -225 6.6 -2.5 8.7 -2.9 9.6 -1.9 0.6 0.6 19.5 56.1 41.9 123.3 l40.9 122 -26.9 129 c-14.8 70.9 -26.9 129.7 -26.9 130.7 -0.1 1.3 5.3 6 16.3 14.5 9.1 7 16.6 13.2 16.8 13.9 0.2 0.6 -10.6 9.5 -24.1 19.8 -13.6 10.3 -24.6 19.1 -24.6 19.6 0 0.4 8.3 7.2 18.5 15.1 11.9 9.2 18.5 14.9 18.3 15.8 -0.2 0.9 -11.1 11.5 -24.3 23.5 -13.2 12.1 -24 22.4 -24 22.9 0 0.5 5.9 5.3 13.2 10.5 16.7 12.1 17.1 12.5 15.2 14.8 -0.8 1 -17.5 20.5 -37.1 43.5 -19.7 22.9 -35.8 42.1 -35.8 42.7 0 1.4 -1.8 1.2 -5 -0.4z"/>
 </g>
 <g fill="#cd6116">
  <path d="M679 1591.4 c-0.8 -0.3 -38.7 -56.4 -84.2 -124.7 -72.9 -109.3 -82.8 -124.7 -82.8 -128 l0 -3.7 10.8 0.1 c5.9 0 52.2 0.6 102.9 1.3 73.4 1 92.4 1.5 93.7 2.5 0.9 0.8 1.6 2.5 1.6 4 0 1.4 -6.1 54.1 -13.5 117.1 -7.5 63 -13.7 118 -13.8 122.2 -0.1 4.2 -0.4 7.9 -0.7 8.1 -0.8 0.8 -12.3 1.6 -14 1.1z"/>
  <path d="M1358.5 1591.3 c-2.2 -0.3 -3.4 -1.2 -4.2 -3.1 -0.6 -1.5 -7.5 -57.5 -15.4 -124.5 l-14.3 -121.7 2.2 -2.2 2.1 -2.2 92.3 -1.2 c50.8 -0.7 96.9 -1.3 102.6 -1.3 l10.2 -0.1 0 3.7 c0 3.3 -9.9 18.7 -83.2 128.5 -81.5 122.4 -83.2 124.8 -86.2 124.6 -1.7 0 -4.5 -0.3 -6.1 -0.5z"/>
  <path d="M882.6 1240.4 c-0.8 -2.2 -0.8 -2.2 1.3 -2.6 1.6 -0.3 -1.6 -7.6 -22 -50.8 -13.1 -27.8 -24.2 -50.4 -24.6 -50.3 -4.9 1.6 -116 52.9 -115.7 53.5 0.3 0.4 1.5 0.8 2.7 0.8 1.8 0 1.9 0.2 0.7 1 -2 1.3 -8 1.3 -8 0 0 -0.5 -1.5 -1 -3.4 -1 -3.2 0 -6.5 -3.1 -46.7 -43.7 -23.9 -24.1 -56.3 -56.9 -72.1 -72.8 -28.1 -28.3 -28.8 -29.1 -28.8 -33 0 -2.2 0.4 -4.6 0.9 -5.3 0.7 -1.2 30.6 -0.1 175.7 6.2 96.2 4.2 176.8 7.9 179.2 8.2 l4.2 0.5 0 5.5 c0 3 -0.4 5.4 -1 5.4 -0.5 0 -1 1 -1 2.3 0 5.6 -32 176.1 -33.2 176.8 -2.3 1.5 -7.5 1 -8.2 -0.7z"/>
  <path d="M1156.3 1241.3 c-1.4 -0.3 -2.4 -1.4 -2.7 -3.1 -4.1 -19.3 -30.9 -171.8 -31.3 -177.9 -0.6 -8 -0.5 -8.2 1.8 -9.2 1.3 -0.5 45.4 -2.7 97.9 -5 52.5 -2.3 131.6 -5.7 175.8 -7.7 63.7 -2.9 80.5 -3.4 81.7 -2.4 0.8 0.7 1.5 2.8 1.5 4.8 0 3.2 -1.7 5.2 -21.8 25.6 -11.9 12.2 -43.9 44.7 -71 72.3 -52.9 53.7 -52.5 53.4 -62.1 53.3 l-3.6 -0.1 2.7 -1.2 c2.6 -1.1 -0.5 -2.7 -54.1 -27 -31.2 -14.2 -57.7 -26 -58.8 -26.3 -1.7 -0.5 -4.8 5.4 -25.7 49.3 -13.1 27.4 -24.1 50.4 -24.3 51.1 -0.4 0.9 0.1 1 2 0.3 2.5 -1 2.6 -0.9 1.5 1.4 -1.1 2.5 -3.5 3 -9.5 1.8z"/>
 </g>
 <g fill="#e4761b">
  <path d="M317.6 1684.8 c-9.2 -30.2 -102.6 -350.2 -102.3 -350.4 0.2 -0.3 268.4 -0.6 322.5 -0.4 13 0 13.2 0 13.2 2.3 l0 2.2 -18 -0.3 c-9.9 -0.2 -18 0 -18 0.5 0 1.9 165.7 249.2 167.2 249.6 1 0.3 2.1 0.1 2.4 -0.5 0.8 -1.3 3.3 2.2 3.4 4.8 0 1.7 -0.5 2 -2.2 1.7 -1.3 -0.2 -83.3 21.9 -182.3 49.2 -98.9 27.2 -180.7 49.5 -181.7 49.5 -1.3 0 -2.3 -2 -4.2 -8.2z"/>
  <path d="M1711.5 1689.5 c-100.3 -28.1 -347.6 -95.5 -349.2 -95.2 -1.8 0.3 -2.3 0 -2.3 -1.7 0.1 -2.9 2.4 -5.8 3.7 -4.5 0.6 0.6 29.4 -41.8 84.1 -123.8 45.8 -68.7 83.2 -125.2 83.2 -125.6 0 -0.5 -8.3 -0.7 -18.5 -0.5 -18.5 0.3 -18.5 0.3 -18.5 -1.9 0 -2.1 0.3 -2.2 14.3 -2.5 7.8 -0.2 84.3 -0.2 170 0 146.7 0.3 155.8 0.4 155.2 2 -0.3 0.9 -23.6 79.6 -51.6 174.7 -28 95.2 -51.7 175.1 -52.5 177.8 -1.9 5.7 -1.8 5.7 -17.9 1.2z"/>
  <path d="M690.3 1582.8 c-0.1 -2.4 6 -57.2 13.7 -121.8 9.9 -84.1 13.6 -117.8 12.8 -118.7 -0.6 -0.7 -2.1 -1.3 -3.4 -1.3 -1.7 0 -2.4 -0.6 -2.4 -2 0 -3.2 6.1 -2.7 10.2 0.8 1.8 1.6 15.7 12.5 30.8 24.3 15.1 11.9 43.7 34.2 63.5 49.6 19.8 15.5 46.6 36.4 59.5 46.5 l23.5 18.3 0.3 4.5 0.3 4.5 -101.9 49.8 c-56.1 27.3 -103 49.7 -104.3 49.7 -2.2 0 -2.5 -0.5 -2.6 -4.2z"/>
  <path d="M1255 1539.4 c-53.6 -26.1 -99.9 -48.6 -102.7 -49.9 -5.2 -2.4 -5.3 -2.5 -5.3 -6.9 0 -3.9 0.4 -4.7 3.8 -7.2 7.6 -5.8 167.9 -130.9 172.3 -134.6 3.8 -3 5.5 -3.8 8.8 -3.8 3.4 0 4.1 0.3 4.1 2 0 1.4 -0.7 2 -2.3 2 -1.3 0 -3.1 0.8 -3.9 1.8 -1.5 1.5 -0.3 12.6 12.6 121.4 7.8 65.8 14.5 120 14.9 120.4 1.4 1.5 0.6 2.4 -2 2.4 -1.6 -0.1 -45.9 -21.1 -100.3 -47.6z"/>
  <path d="M925.5 1421.8 c-0.3 -1.3 -8.2 -41.7 -17.5 -89.8 -17.6 -90.9 -17.4 -90 -22.2 -90 -1.2 0 -1.8 -0.7 -1.8 -2.1 0 -1.4 0.5 -1.9 1.3 -1.6 0.8 0.3 1.9 0.2 2.6 -0.2 1.1 -0.7 33.1 -171.5 33.1 -176.8 0 -1.3 0.5 -2.3 1 -2.3 0.6 0 1 -1.1 1 -2.4 0 -2.2 -0.6 -2.5 -4.2 -3 -2.4 -0.3 -77.6 -3.7 -167.3 -7.6 -89.6 -3.8 -167.1 -7.3 -172.1 -7.6 -8.9 -0.6 -9.2 -0.5 -9.9 1.6 -0.6 1.9 3.1 6.1 28.2 31.4 15.8 16 48.2 48.7 71.9 72.6 37.3 37.7 43.5 43.5 46.2 43.7 1.8 0.1 4.2 1.2 5.4 2.4 l2.3 2.2 -6.8 -0.6 -6.9 -0.6 0.7 13.2 c1.2 26.1 3.5 96.4 3.5 107.5 l0 11.3 -3.6 -0.3 -3.7 -0.3 -24.6 -48 c-13.6 -26.4 -41 -79.9 -61.1 -119 -20 -39 -41 -80 -46.7 -91 -6.7 -13 -10.3 -21.1 -10.3 -23.2 0 -2.5 10.2 -18.5 48.9 -77.1 35.3 -53.3 48.8 -74.5 48.5 -76 -0.4 -1.5 0.1 -2.1 1.9 -2.6 3.2 -0.8 5.5 0.1 5.9 2.3 0.2 1.3 32.1 -25.1 115.3 -95.6 63.3 -53.5 115.6 -98 116.2 -99 0.7 -0.9 1.6 -1.4 1.9 -1 0.4 0.3 5.5 80.6 11.5 178.4 5.9 97.8 11.5 188.6 12.4 201.8 7.1 107.2 6.4 85.7 6.5 224.5 l0.1 126.5 -3.5 0.3 c-3 0.3 -3.6 0 -4.1 -2z"/>
  <path d="M1112.4 1297.8 l0.7 -126.3 4.4 -63.1 c2.5 -34.6 9 -142 14.5 -238.5 5.5 -96.5 10.3 -177.1 10.6 -179.2 0.4 -2.8 1 -3.7 2.6 -3.7 1.6 0 1.9 0.6 1.6 3.4 -0.3 3.3 0.7 4.2 115.1 101 92.9 78.7 115.6 97.4 116.3 96.2 1 -1.8 3.8 -2.2 3.8 -0.6 0 0.6 22.5 34.8 50 76 44.2 66.3 50 75.4 50 78.8 0 2.1 -0.4 4.2 -0.9 4.8 -0.5 0.5 -18.4 35.1 -39.9 76.9 -21.5 41.8 -53.2 103.5 -70.5 137 l-31.5 61 -4.1 0.3 c-4 0.3 -4.1 0.3 -4.1 -3 0 -1.8 1.1 -28 2.5 -58.3 1.4 -30.2 2.5 -58.2 2.5 -62.1 l0 -7.1 -3.8 1 c-2.1 0.6 -5.1 0.7 -6.8 0.2 l-2.9 -0.7 2.8 -1 c1.5 -0.5 2.7 -1.3 2.7 -1.7 0 -0.4 1.7 -1.3 3.8 -1.9 3.2 -1 12.8 -10.2 53.3 -51.4 27.2 -27.7 59.3 -60.3 71.3 -72.6 19.2 -19.5 21.8 -22.5 20.5 -23.7 -1.3 -1.3 -11.1 -1 -77.9 2 -42.1 1.8 -119.9 5.3 -173 7.5 -53.1 2.3 -97.6 4.6 -98.9 5.1 -2.2 0.9 -2.3 1.4 -1.7 6.2 0.8 6.9 31.4 176.8 31.9 177.4 0.2 0.2 1.8 0.5 3.6 0.6 4.2 0.3 4.5 3.7 0.3 3.7 -1.6 0 -3.6 0.6 -4.5 1.3 -1.4 0.9 -5.7 21.2 -19.2 90 -9.6 48.9 -17.5 89.2 -17.5 89.8 0 0.5 -1.9 0.9 -4.1 0.9 l-4.2 0 0.7 -126.2z"/>
  <path d="M680.3 1340.3 c-24.2 -0.3 -25.3 -0.4 -25.3 -2.3 0 -1 0.5 -2.2 1.1 -2.5 0.6 -0.4 12.3 -0.4 26 0 l24.9 0.8 0 2.3 c0 1.3 -0.3 2.3 -0.7 2.2 -0.5 -0.2 -12.2 -0.4 -26 -0.5z"/>
  <path d="M1338 1338.8 l0 -2.5 24.8 -0.7 c26.5 -0.8 30.2 -0.5 30.2 2.5 0 1.8 -1.1 1.9 -24.4 1.9 -13.4 0 -25.8 0.3 -27.5 0.6 -2.8 0.6 -3.1 0.4 -3.1 -1.8z"/>
  <path d="M602.3 1339.3 c-24.2 -0.3 -25.3 -0.4 -25.3 -2.3 0 -1 0.5 -2.2 1.1 -2.5 0.6 -0.4 12.3 -0.4 26 0 l24.9 0.8 0 2.3 c0 1.3 -0.3 2.3 -0.7 2.2 -0.5 -0.2 -12.2 -0.4 -26 -0.5z"/>
  <path d="M1416 1337.8 l0 -2.5 24.8 -0.7 c26.5 -0.8 30.2 -0.5 30.2 2.5 0 1.8 -1.1 1.9 -24.4 1.9 -13.4 0 -25.8 0.3 -27.5 0.6 -2.8 0.6 -3.1 0.4 -3.1 -1.8z"/>
  <path d="M895 677.3 c-1.9 -1.9 -138.5 -103.6 -303.5 -226 -165 -122.4 -300.4 -222.9 -301 -223.5 -0.5 -0.5 2.4 0.3 6.6 1.9 4.2 1.5 121.1 45.1 259.8 96.8 229 85.4 252.1 94.2 251.6 96 -0.4 1.9 19.2 56.5 69.6 193.5 19.6 53.3 23.5 65.2 21.3 64.8 -0.5 0 -2.5 -1.6 -4.4 -3.5z"/>
  <path d="M1148.2 678.4 c-2.6 -2.8 -3.1 -1.4 32.3 -96.9 1.8 -4.9 14 -37.8 27 -73 13 -35.2 25.4 -68.7 27.6 -74.5 2.1 -5.8 3.9 -11.3 3.9 -12.3 0 -0.9 0.4 -1.7 1 -1.7 0.5 0 117.1 -43.4 259.1 -96.5 142.1 -53 258.4 -96.4 258.5 -96.2 0.1 0.1 -136 101.2 -302.4 224.7 -166.5 123.5 -303.3 225.2 -304.2 226.1 -1.3 1.2 -1.9 1.3 -2.8 0.3z"/>
 </g>
 <g fill="#f6851b">
  <path d="M1147 1486.2 c0 -1.6 -0.8 -3.6 -1.7 -4.4 -2.2 -1.9 -28.1 -19.8 -28.7 -19.8 -0.2 0 -0.6 0.9 -0.9 2 -0.5 2 -1.4 2 -91.5 2 -89.3 0 -91.1 0 -92.5 -2 -1.3 -1.8 -2 -1.5 -15.8 8 -11.3 7.9 -14.6 10.6 -15.3 13 -0.9 3 -2.3 3.5 -6.1 2.1 -1.8 -0.7 -1.8 -0.8 -0.1 -1.8 1.1 -0.6 1.7 -1.7 1.3 -2.6 -0.3 -0.8 -10.8 -9.5 -23.4 -19.3 -12.5 -9.8 -39.2 -30.6 -59.3 -46.3 -20.1 -15.7 -48.9 -38.1 -64 -49.9 -15.1 -11.8 -28.7 -22.6 -30.2 -24 -2.3 -2.1 -3.6 -2.5 -7.9 -2.3 -2.8 0.1 -5.6 -0.2 -6.2 -0.7 -1.8 -1.4 -45.3 -2.6 -46.2 -1.3 -0.8 1.4 -30.7 1.5 -32 0.2 -1.3 -1.3 -45.3 -2.3 -46 -1 -0.8 1.3 -30.8 1.2 -32.1 -0.1 -0.8 -0.8 -53.4 -1.1 -167.4 -1 l-166.2 0 0.5 -2.2 c0.9 -4.1 111.6 -348.3 112.5 -349.7 0.4 -0.8 6.6 -3.1 13.8 -5.2 7.1 -2 35.4 -10.3 62.9 -18.3 27.5 -8.1 60.1 -17.6 72.5 -21.2 12.4 -3.6 26.8 -7.9 32 -9.4 5.2 -1.6 14.9 -4.4 21.5 -6.3 6.6 -2 35.9 -10.5 65 -19 29.2 -8.6 57 -16.7 61.9 -18.2 7.8 -2.2 9.2 -2.4 10.4 -1.1 1.2 1.2 1.2 1.6 -0.3 3.2 -2.2 2.4 -98 147.6 -97.9 148.4 0.1 0.3 -0.6 1 -1.4 1.6 -1.4 1 -1 2.2 2.5 9 4.9 9.6 28.9 56.2 81.8 159.4 21.8 42.6 43.8 85.4 48.9 95 l9.1 17.5 0.3 -5.5 c0.2 -3 -0.6 -32.7 -1.8 -65.9 -1.6 -43.8 -1.8 -60.7 -1.1 -61.4 1.4 -1.4 -6.5 -3.6 96 26.7 45.9 13.5 84.2 24.6 85.1 24.6 4.6 0 4.5 -0.4 22 90 18.3 94.4 17.9 92.5 18.6 91.8 0.2 -0.3 0.4 -56 0.4 -123.7 l0 -123.3 -3.5 -52.6 c-1.9 -29 -3.6 -56.1 -3.8 -60.2 -0.2 -4.1 -5.2 -85.1 -11.1 -180 -5.8 -94.9 -10.8 -177.7 -11 -184 -0.3 -9.9 -0.7 -12.3 -3.1 -17.5 -1.4 -3.3 -11.4 -29.8 -22 -59 -10.6 -29.1 -31.3 -85.8 -45.9 -125.8 -14.6 -40.1 -26.3 -73.3 -26 -73.8 0.3 -0.5 90.6 -0.9 220 -0.9 215.3 0 219.4 0 219.4 1.9 0 1.1 -2 7.2 -4.4 13.8 -2.5 6.5 -15.8 42.4 -29.6 79.8 -13.8 37.4 -26.5 71.6 -28.1 76 -22.5 60.6 -30.5 83.1 -29.8 83.6 0.5 0.3 0 2.2 -1 4.3 -4.6 8.9 -4.9 13.4 -15.2 193.5 -5.5 96.5 -11.9 203.9 -14.4 238.5 l-4.4 63.1 -0.7 123.3 c-0.5 91.4 -0.4 123.2 0.5 123.2 0.6 0 1.1 -0.4 1.1 -0.9 0 -0.6 7.9 -40.9 17.5 -89.8 13.5 -68.8 17.8 -89.1 19.2 -90 0.9 -0.7 3 -1.3 4.5 -1.3 2.6 0 134.4 -38.2 166.6 -48.2 11.2 -3.5 13.5 -4 14.2 -2.7 0.5 0.8 0.7 5.2 0.4 9.9 -1.3 21.6 -5.3 120.4 -4.9 120.9 0.3 0.2 0.9 0 1.4 -0.5 0.8 -0.8 38.6 -73.9 112.1 -216.9 15 -29.1 28.1 -54.6 29.2 -56.6 l2 -3.6 -50 -74.9 c-27.4 -41.2 -50.2 -75.9 -50.6 -77 -1.3 -4.2 1.4 -4.6 11 -1.8 36.1 10.4 326.6 95.5 328.7 96.3 1.5 0.6 2.7 1.8 2.7 2.8 0 1 25.3 79.4 56.1 174.3 30.8 94.9 56.2 173.2 56.2 174 0.2 1.3 -19.1 1.5 -167.7 1.7 -121.9 0.2 -168.1 0.5 -168.6 1.3 -0.5 0.8 -5.2 1 -16.1 0.5 -21.8 -0.9 -61.3 -0.5 -62 0.7 -0.4 0.6 -6.4 0.7 -16 0.3 -22.6 -1 -61.3 -0.5 -62 0.7 -0.4 0.7 -2.7 0.9 -5.5 0.5 -4.5 -0.5 -5.2 -0.2 -9.4 3.2 -4.4 3.7 -164.7 128.8 -172.2 134.5 -4.1 3.1 -4.7 5 -2.1 6.5 1.4 0.8 1.5 1.2 0.4 2.5 -2.3 2.7 -5.1 2 -5.1 -1.2z"/>
 </g>
 <g fill="#c0ad9e">
  <path d="M827.5 1700.2 c-66.7 -46.4 -75.9 -53.1 -106.7 -78.2 -18.5 -15.1 -34.7 -28.3 -36 -29.2 -1.9 -1.3 -2.1 -2 -1.2 -3.5 0.7 -1.1 2.2 -1.7 3.8 -1.6 1.8 0.1 2.6 -0.3 2.6 -1.4 0 -1.2 0.7 -1.4 2.8 -1 1.5 0.3 44.4 20.4 95.5 44.5 l92.7 44 0 -25.9 c0 -25.2 0.1 -25.9 2 -25.9 1.6 0 2 0.7 2 3.4 0 5.9 2.4 5.3 11.3 -2.9 l8.2 -7.5 119.3 0 119.4 0 7.9 7 c8.2 7.2 11.7 8.6 12.6 5 0.3 -1.1 1.2 -2 2.1 -2 1.2 0 1.4 1 0.8 5.4 -0.3 2.9 -0.9 13.9 -1.2 24.4 l-0.7 19.2 43.9 -20.8 c24.1 -11.5 66.1 -31.3 93.2 -44.1 39.2 -18.6 49.2 -23.7 49.2 -25.2 0 -2.3 0.3 -2.3 4 -0.4 1.7 0.9 3 2.2 3 3 0 0.9 0.9 1.3 2.6 1.2 1.6 -0.1 3.1 0.5 3.8 1.6 0.9 1.5 0.7 2.2 -1.2 3.5 -1.3 0.9 -17.7 14.2 -36.5 29.6 -31.5 25.6 -39.6 31.5 -103.2 75.5 -37.9 26.3 -70.8 49 -73 50.4 l-4 2.7 -123 0 -123 0 -73 -50.8z"/>
 </g>
 <g fill="#d7c1b3">
  <path d="M786.5 1633.5 c-67.7 -32.1 -96 -45.9 -96 -47 0 -1.9 206 -102.9 208.2 -102.1 0.7 0.3 1.3 1.6 1.3 2.8 0 1.3 -3.5 32 -7.7 68.3 -7.6 65.4 -7.6 66.3 -7.9 94.5 -0.2 15.6 -0.7 28.6 -1.1 28.7 -0.4 0.1 -44 -20.2 -96.8 -45.2z"/>
  <path d="M1161.9 1678.3 c-0.3 -4.7 0.4 -30.3 1.1 -40.7 0.9 -13.3 0.8 -14.1 -7.5 -82.3 -7.1 -57.6 -8.2 -69 -7.1 -70.1 1.1 -1.2 3 -0.6 11.7 3.6 8.9 4.2 133.2 64.7 182.2 88.6 8.6 4.3 15.7 8.1 15.7 8.5 0 0.5 -3.7 2.6 -8.2 4.8 -21.4 10.4 -186.6 88.3 -187.2 88.3 -0.3 0 -0.6 -0.3 -0.7 -0.7z"/>
 </g>
</svg>