<svg width="32" height="28" viewBox="0 0 32 28" xmlns="http://www.w3.org/2000/svg" fill="none">
  <path d="M16 1.5L27.6 6.4L24.3 20.9L16 26.5L7.7 20.9L4.4 6.4L16 1.5Z" fill="#F7931A" stroke="#1F1F1F" stroke-width="1.2" stroke-linejoin="round"/>
  <path d="M16 12.2L12.1 14.6L10.9 20.2L16 23.7L21.1 20.2L19.9 14.6L16 12.2Z" fill="#EF8E1B" stroke="#1F1F1F" stroke-width="1.2" stroke-linejoin="round"/>
  <path d="M6.9 10.4L12.2 14.6L10.9 9L6.9 10.4Z" fill="#FFB347" stroke="#1F1F1F" stroke-width="1" stroke-linejoin="round"/>
  <path d="M25.1 10.4L19.8 14.6L21.1 9L25.1 10.4Z" fill="#FFB347" stroke="#1F1F1F" stroke-width="1" stroke-linejoin="round"/>
  <path d="M11.4 17.3L16 19.6L20.6 17.3" stroke="#1F1F1F" stroke-width="1" stroke-linecap="round" stroke-linejoin="round"/>
  <path d="M12.6 13.9L13.5 15.5L12.1 16.7" stroke="#1F1F1F" stroke-width="1" stroke-linecap="round"/>
  <path d="M19.4 13.9L18.5 15.5L19.9 16.7" stroke="#1F1F1F" stroke-width="1" stroke-linecap="round"/>
</svg>
